<svg aria-hidden="true" style="position: absolute; width: 0; height: 0; overflow: hidden;" version="1.1" xmlns="http://www.w3.org/2000/svg" xmlns:xlink="http://www.w3.org/1999/xlink">
    <defs>
        <symbol id="icon-logo-cosmozoo" viewBox="0 0 262 32">
            <path fill="#fff" style="fill: var(--color1, #fff)" d="M0 16.023c0-3.074 0.627-5.82 1.879-8.235 1.28-2.447 3.006-4.341 5.184-5.685 2.204-1.372 4.668-2.057 7.39-2.057 3.183 0 5.973 0.894 8.369 2.684 2.394 1.79 4.068 4.267 5.020 7.43h-6.571c-0.653-1.491-1.577-2.611-2.775-3.356-1.171-0.745-2.532-1.118-4.085-1.118-1.658 0-3.144 0.433-4.448 1.299-1.28 0.834-2.287 2.027-3.021 3.578-0.708 1.551-1.062 3.371-1.062 5.459 0 2.061 0.354 3.881 1.062 5.463 0.734 1.551 1.741 2.76 3.021 3.624 1.306 0.836 2.79 1.254 4.45 1.254 1.551 0 2.912-0.373 4.083-1.118 1.197-0.776 2.121-1.911 2.775-3.401h6.573c-0.952 3.192-2.626 5.685-5.022 7.473-2.366 1.762-5.158 2.641-8.367 2.641-2.722 0-5.186-0.67-7.39-2.014-2.178-1.372-3.906-3.266-5.184-5.685-1.254-2.413-1.88-5.158-1.88-8.232zM48.787 32c-0.032 0-0.069 0-0.107 0-2.681 0-5.183-0.767-7.299-2.093l0.057 0.034c-2.232-1.372-4.002-3.266-5.308-5.685-1.306-2.447-1.958-5.205-1.958-8.279 0-3.044 0.651-5.773 1.958-8.188 1.306-2.447 3.076-4.358 5.308-5.73 2.058-1.293 4.56-2.060 7.242-2.060 0.038 0 0.075 0 0.113 0l-0.006-0c2.692 0 5.143 0.687 7.347 2.059 2.232 1.372 3.987 3.281 5.267 5.728 1.306 2.417 1.96 5.146 1.96 8.19 0 3.074-0.653 5.833-1.96 8.28-1.28 2.417-3.034 4.311-5.267 5.685-2.057 1.292-4.559 2.058-7.239 2.058-0.039 0-0.077-0-0.116-0l0.006 0zM48.787 26.406c1.713 0 3.224-0.418 4.531-1.254 1.306-0.866 2.327-2.089 3.061-3.671s1.103-3.415 1.103-5.504c0-2.089-0.367-3.908-1.103-5.459-0.734-1.581-1.754-2.792-3.061-3.625-1.306-0.836-2.818-1.254-4.531-1.254-1.715 0-3.24 0.418-4.574 1.254-1.306 0.834-2.327 2.042-3.061 3.624-0.734 1.553-1.103 3.373-1.103 5.461 0 2.089 0.367 3.925 1.103 5.506 0.734 1.581 1.754 2.805 3.061 3.671 1.335 0.834 2.859 1.252 4.574 1.252zM80.284 32c-1.988 0-3.784-0.373-5.389-1.118-1.552-0.725-2.824-1.826-3.735-3.19l-0.021-0.033c-0.926-1.402-1.402-3.059-1.431-4.969h6.125c0.081 1.284 0.489 2.298 1.224 3.044 0.762 0.747 1.798 1.12 3.104 1.12 1.333 0 2.381-0.343 3.144-1.030 0.762-0.715 1.143-1.641 1.143-2.775 0-0.926-0.258-1.687-0.776-2.283-0.527-0.598-1.183-1.070-1.925-1.375l-0.034-0.013c-0.762-0.358-1.824-0.745-3.185-1.163-1.85-0.597-3.36-1.178-4.531-1.745-1.143-0.597-2.136-1.478-2.98-2.641-0.817-1.193-1.224-2.775-1.224-4.744 0-1.85 0.42-3.464 1.263-4.834 0.853-1.371 2.064-2.447 3.504-3.113l0.050-0.021c1.525-0.745 3.266-1.118 5.225-1.118 2.94 0 5.321 0.791 7.145 2.372 1.85 1.551 2.871 3.729 3.061 6.534h-6.287c-0.031-1.058-0.513-1.997-1.26-2.635l-0.005-0.004c-0.762-0.715-1.783-1.075-3.063-1.075-1.114 0-2.014 0.312-2.694 0.941-0.653 0.625-0.979 1.536-0.979 2.729 0 0.836 0.245 1.536 0.734 2.103 0.518 0.536 1.143 0.984 1.879 1.342 0.76 0.329 1.822 0.715 3.183 1.165 1.85 0.597 3.362 1.193 4.531 1.788 1.171 0.599 2.178 1.493 3.021 2.686 0.845 1.193 1.267 2.76 1.267 4.7 0 0.018 0 0.040 0 0.062 0 1.686-0.44 3.269-1.211 4.641l0.025-0.048c-0.787 1.431-1.944 2.579-3.469 3.445-1.525 0.836-3.332 1.254-5.429 1.254zM129.225 0.448v31.24h-5.717v-20.32l-7.631 20.32h-4.329l-7.671-20.32v20.32h-5.717v-31.24h6.492l9.062 23.228 9.062-23.228h6.451zM150.938 32c-0.031 0-0.068 0-0.105 0-2.681 0-5.183-0.767-7.299-2.093l0.058 0.034c-2.232-1.372-4.002-3.266-5.308-5.685-1.306-2.447-1.958-5.205-1.958-8.279 0-3.044 0.651-5.773 1.958-8.188 1.306-2.447 3.076-4.358 5.308-5.73 2.058-1.293 4.56-2.060 7.242-2.060 0.037 0 0.074 0 0.111 0l-0.006-0c2.696 0 5.144 0.687 7.349 2.059 2.232 1.372 3.987 3.281 5.267 5.728 1.306 2.417 1.96 5.146 1.96 8.19 0 3.074-0.653 5.833-1.958 8.28-1.28 2.417-3.036 4.311-5.269 5.685-2.057 1.292-4.559 2.058-7.239 2.058-0.039 0-0.077-0-0.116-0l0.006 0zM150.938 26.406c1.715 0 3.226-0.418 4.533-1.254 1.306-0.866 2.327-2.089 3.063-3.671 0.734-1.581 1.101-3.415 1.101-5.504s-0.367-3.908-1.101-5.459c-0.734-1.581-1.756-2.792-3.063-3.625-1.306-0.836-2.818-1.254-4.531-1.254-1.715 0-3.24 0.418-4.574 1.254-1.306 0.834-2.327 2.042-3.061 3.624-0.734 1.553-1.103 3.373-1.103 5.461 0 2.089 0.367 3.925 1.103 5.506 0.734 1.581 1.756 2.805 3.061 3.671 1.335 0.834 2.859 1.252 4.574 1.252zM178.44 26.406h12.817v5.282h-19.432v-4.834l12.738-21.126h-12.738v-5.28h19.432v4.834l-12.819 21.124zM212.183 32c-0.032 0-0.069 0-0.107 0-2.681 0-5.184-0.767-7.3-2.093l0.058 0.034c-2.231-1.372-4-3.266-5.306-5.685-1.306-2.447-1.96-5.205-1.96-8.279 0-3.044 0.653-5.773 1.96-8.188 1.306-2.447 3.076-4.358 5.306-5.73 2.058-1.293 4.56-2.060 7.242-2.060 0.038 0 0.077 0 0.115 0l-0.006-0c2.694 0 5.144 0.687 7.349 2.059 2.231 1.372 3.987 3.281 5.267 5.728 1.306 2.417 1.96 5.146 1.96 8.19 0 3.074-0.653 5.833-1.96 8.28-1.28 2.417-3.036 4.311-5.267 5.685-2.058 1.292-4.559 2.058-7.239 2.058-0.039 0-0.077-0-0.115-0l0.006 0zM212.183 26.406c1.715 0 3.224-0.418 4.531-1.254 1.306-0.866 2.328-2.089 3.063-3.671s1.103-3.415 1.103-5.504c0-2.089-0.369-3.908-1.103-5.459-0.734-1.581-1.756-2.792-3.063-3.625-1.306-0.836-2.816-1.254-4.531-1.254s-3.24 0.418-4.572 1.254c-1.306 0.834-2.327 2.042-3.063 3.624-0.734 1.553-1.101 3.373-1.101 5.461 0 2.089 0.367 3.925 1.101 5.506 0.736 1.581 1.756 2.805 3.063 3.671 1.333 0.834 2.857 1.252 4.572 1.252zM247.072 32c-0.032 0-0.070 0-0.108 0-2.68 0-5.182-0.767-7.296-2.093l0.057 0.034c-2.232-1.372-4.002-3.266-5.308-5.685-1.306-2.447-1.96-5.205-1.96-8.279 0-3.044 0.653-5.773 1.96-8.188 1.306-2.447 3.076-4.358 5.308-5.73 2.057-1.293 4.559-2.060 7.239-2.060 0.038 0 0.076 0 0.114 0l-0.006-0c2.696 0 5.144 0.687 7.349 2.059 2.232 1.372 3.987 3.281 5.267 5.728 1.306 2.417 1.96 5.146 1.96 8.19 0 3.074-0.653 5.833-1.96 8.28-1.28 2.417-3.034 4.311-5.267 5.685-2.057 1.292-4.558 2.058-7.238 2.058-0.039 0-0.078-0-0.117-0l0.006 0zM247.072 26.406c1.715 0 3.226-0.418 4.533-1.254 1.306-0.866 2.327-2.089 3.061-3.671 0.736-1.581 1.103-3.415 1.103-5.504s-0.367-3.908-1.103-5.459c-0.734-1.581-1.754-2.792-3.061-3.625-1.306-0.836-2.818-1.254-4.533-1.254-1.713 0-3.238 0.418-4.572 1.254-1.306 0.834-2.327 2.042-3.061 3.624-0.736 1.553-1.103 3.373-1.103 5.461 0 2.089 0.367 3.925 1.103 5.506 0.734 1.581 1.754 2.805 3.061 3.671 1.335 0.834 2.859 1.252 4.572 1.252z"></path>
        </symbol>
        <symbol id="icon-menu" viewBox="0 0 42 32">
            <path stroke-linejoin="round" stroke-linecap="round" stroke-miterlimit="4" stroke-width="3.3103" d="M5.241 16h31.448M5.241 8h31.448M5.241 24h31.448"></path>
        </symbol>
        <symbol id="icon-arrow-down" viewBox="0 0 32 32">
            <path stroke-linejoin="miter" stroke-linecap="round" stroke-miterlimit="4" stroke-width="2.6667" d="M8.458 23.542l15.085-15.085M23.543 8.457v11.314M23.543 8.457h-11.314"></path>
        </symbol>
        <symbol id="icon-plus-list-1" viewBox="0 0 19 32">
            <path d="M15.774 3.661c-2.172-1.79-5.031-2.502-7.844-1.954-3.786 0.737-6.826 3.933-7.394 7.772-0.463 3.133 0.65 6.262 2.977 8.369 1.049 0.95 1.682 2.318 1.782 3.853 0.001 0.028 0.007 0.055 0.013 0.081v4.813c0 0.265 0.215 0.48 0.48 0.48v0h0.479c0.195 1.395 1.22 2.463 2.455 2.463h2.179c1.235 0 2.26-1.068 2.455-2.463h0.479c0.265 0 0.48-0.215 0.48-0.48v0-4.893c0-1.428 0.648-2.807 1.826-3.883 1.876-1.72 3.048-4.18 3.052-6.914v-0.001c0-0.004 0-0.008 0-0.012 0-2.906-1.325-5.502-3.404-7.218l-0.016-0.013zM8.114 12.771h-0.737c-0.407-0.001-0.737-0.331-0.737-0.738v-0c0.001-0.407 0.33-0.737 0.737-0.737h0c0.407 0.001 0.737 0.33 0.737 0.737v0.738zM11.509 12.033c0.001-0.407 0.331-0.737 0.738-0.737h0c0.407 0.001 0.737 0.33 0.737 0.737v0c-0.001 0.407-0.33 0.737-0.737 0.737h-0.737l-0.001-0.737zM11.22 22.147h2.134v3.967h-0.439l-0.003-0h-6.643v-3.967h4.597zM9.074 21.187v-7.456h1.477l0.011 7.456h-1.488zM10.901 28.577h-2.179c-0.716 0-1.317-0.641-1.484-1.503h5.147c-0.166 0.862-0.767 1.503-1.483 1.503zM15.493 17.111c-1.239 1.131-1.972 2.564-2.11 4.076h-1.861l-0.011-7.456h0.736c0.937-0.001 1.697-0.761 1.697-1.698v-0c-0.001-0.937-0.76-1.696-1.697-1.697h-0c-0.938 0.001-1.698 0.761-1.698 1.698v0l0.001 0.737h-1.476v-0.738c-0.001-0.937-0.76-1.696-1.697-1.697h-0c-0.937 0.001-1.696 0.761-1.697 1.697v0c0.001 0.937 0.76 1.696 1.697 1.697h0.738v7.456h-1.911c-0.203-1.601-0.916-3.029-2.046-4.051-2.089-1.892-3.088-4.703-2.672-7.518 0.509-3.443 3.234-6.309 6.628-6.97 2.53-0.492 5.1 0.147 7.050 1.754 1.88 1.552 3.069 3.882 3.069 6.491 0 0.004 0 0.008 0 0.012v-0.001c-0.003 2.455-1.056 4.663-2.733 6.201l-0.006 0.006z"></path>
            <path stroke-linejoin="miter" stroke-linecap="butt" stroke-miterlimit="4" stroke-width="0.32" d="M11.22 22.147h2.134v3.967h-0.439l-0.003-0h-6.643v-3.967h4.597M15.774 3.661c-2.172-1.79-5.031-2.502-7.844-1.954-3.786 0.737-6.826 3.933-7.394 7.772-0.463 3.133 0.65 6.262 2.977 8.369 1.049 0.95 1.682 2.318 1.782 3.853 0.001 0.028 0.007 0.055 0.013 0.081v4.813c0 0.265 0.215 0.48 0.48 0.48v0h0.479c0.195 1.395 1.22 2.463 2.455 2.463h2.179c1.235 0 2.26-1.068 2.455-2.463h0.479c0.265 0 0.48-0.215 0.48-0.48v0-4.893c0-1.428 0.648-2.807 1.826-3.883 1.876-1.72 3.048-4.18 3.052-6.914v-0.001c0-0.004 0-0.008 0-0.012 0-2.906-1.325-5.502-3.404-7.218l-0.016-0.013zM8.114 12.771h-0.737c-0.407-0.001-0.737-0.331-0.737-0.738v-0c0.001-0.407 0.33-0.737 0.737-0.737h0c0.407 0.001 0.737 0.33 0.737 0.737v0.738zM11.509 12.033c0.001-0.407 0.331-0.737 0.738-0.737h0c0.407 0.001 0.737 0.33 0.737 0.737v0c-0.001 0.407-0.33 0.737-0.737 0.737h-0.737l-0.001-0.737zM9.074 21.187v-7.456h1.477l0.011 7.456h-1.488zM10.901 28.577h-2.179c-0.716 0-1.317-0.641-1.484-1.503h5.147c-0.166 0.862-0.767 1.503-1.483 1.503zM15.493 17.111c-1.239 1.131-1.972 2.564-2.11 4.076h-1.861l-0.011-7.456h0.736c0.937-0.001 1.697-0.761 1.697-1.698v-0c-0.001-0.937-0.76-1.696-1.697-1.697h-0c-0.938 0.001-1.698 0.761-1.698 1.698v0l0.001 0.737h-1.476v-0.738c-0.001-0.937-0.76-1.696-1.697-1.697h-0c-0.937 0.001-1.696 0.761-1.697 1.697v0c0.001 0.937 0.76 1.696 1.697 1.697h0.738v7.456h-1.911c-0.203-1.601-0.916-3.029-2.046-4.051-2.089-1.892-3.088-4.703-2.672-7.518 0.509-3.443 3.234-6.309 6.628-6.97 2.53-0.492 5.1 0.147 7.050 1.754 1.88 1.552 3.069 3.882 3.069 6.491 0 0.004 0 0.008 0 0.012v-0.001c-0.003 2.455-1.056 4.663-2.733 6.201l-0.006 0.006z"></path>
        </symbol>
        <symbol id="icon-plus-list-2" viewBox="0 0 32 32">
            <path d="M24.602 15.974c-0.074-0.174-0.244-0.294-0.442-0.294h-5.527l3.2-12.998c0.007-0.031 0.011-0.067 0.011-0.103 0-0.265-0.215-0.48-0.48-0.48-0.133 0-0.254 0.054-0.341 0.142l-0 0-13.523 13.581c-0.087 0.087-0.14 0.207-0.14 0.339 0 0.265 0.215 0.48 0.48 0.48h5.527l-3.2 12.998c-0.007 0.031-0.011 0.067-0.011 0.103 0 0.265 0.215 0.48 0.48 0.48 0.133 0 0.254-0.054 0.341-0.142l0-0 13.523-13.581c0.087-0.087 0.14-0.206 0.14-0.339 0-0.067-0.014-0.131-0.039-0.189l0.001 0.003zM11.52 28.189l2.931-11.914c0.009-0.034 0.014-0.074 0.014-0.114 0-0.265-0.215-0.48-0.48-0.48-0.001 0-0.003 0-0.004 0h-4.985l11.485-11.55-2.925 11.914c-0.009 0.034-0.014 0.074-0.014 0.115 0 0.265 0.214 0.479 0.478 0.48h4.986l-11.485 11.549zM22.739 22.061c-0.085-0.080-0.201-0.129-0.327-0.129-0.265 0-0.48 0.215-0.48 0.48 0 0.127 0.049 0.242 0.129 0.328l-0-0 3.84 3.84c0.085 0.076 0.197 0.122 0.32 0.122 0.265 0 0.48-0.215 0.48-0.48 0-0.123-0.046-0.235-0.122-0.32l0 0-3.84-3.84zM8.96 9.76c0 0 0.001 0 0.001 0 0.265 0 0.479-0.215 0.479-0.479 0-0.133-0.054-0.253-0.141-0.34v0l-3.84-3.84c-0.085-0.080-0.201-0.129-0.327-0.129-0.265 0-0.48 0.215-0.48 0.48 0 0.127 0.049 0.242 0.129 0.327l-0-0 3.84 3.84c0.090 0.090 0.212 0.141 0.339 0.141z"></path>
            <path d="M21.901 9.459c0.087 0.087 0.207 0.14 0.339 0.14s0.252-0.054 0.339-0.14v0l3.84-3.84c0.080-0.085 0.129-0.201 0.129-0.327 0-0.265-0.215-0.48-0.48-0.48-0.127 0-0.242 0.049-0.328 0.129l0-0-3.84 3.84c-0.087 0.087-0.14 0.207-0.14 0.339s0.054 0.252 0.14 0.339v0zM8.781 22.221l-3.84 3.84c-0.099 0.088-0.161 0.216-0.161 0.359 0 0.265 0.215 0.48 0.481 0.48 0.142 0 0.27-0.062 0.358-0.16l0-0 3.84-3.84c0.080-0.085 0.129-0.201 0.129-0.327 0-0.265-0.215-0.48-0.48-0.48-0.127 0-0.242 0.049-0.328 0.129l0-0zM5.92 19.2c-0.442 0-0.8 0.358-0.8 0.8s0.358 0.8 0.8 0.8v0c0.442 0 0.8-0.358 0.8-0.8s-0.358-0.8-0.8-0.8v0zM3.040 16.96c-0.442 0-0.8 0.358-0.8 0.8s0.358 0.8 0.8 0.8v0c0.442 0 0.8-0.358 0.8-0.8s-0.358-0.8-0.8-0.8v0zM28.64 12.8c-0.442 0-0.8 0.358-0.8 0.8s0.358 0.8 0.8 0.8v0c0.442 0 0.8-0.358 0.8-0.8s-0.358-0.8-0.8-0.8v0zM10.080 4.8c-0.442 0-0.8 0.358-0.8 0.8s0.358 0.8 0.8 0.8v0c0.442 0 0.8-0.358 0.8-0.8s-0.358-0.8-0.8-0.8v0z"></path>
        </symbol>
        <symbol id="icon-plus-list-3" viewBox="0 0 32 32">
            <path d="M21.12 7.222v-1.782h2.4c0.265 0 0.48-0.215 0.48-0.48s-0.215-0.48-0.48-0.48h-5.76c-0.265 0-0.48 0.215-0.48 0.48s0.215 0.48 0.48 0.48h2.4v1.779c-5.412 0.263-9.699 4.715-9.699 10.168 0 5.622 4.557 10.179 10.179 10.179s10.179-4.558 10.179-10.179c0-5.453-4.288-9.905-9.676-10.167l-0.023-0.001v0.003zM20.592 26.63c-5.099 0-9.232-4.133-9.232-9.232s4.133-9.232 9.232-9.232c5.099 0 9.232 4.133 9.232 9.232v0c-0.006 5.096-4.135 9.226-9.231 9.232h-0.001z"></path>
            <path d="M18.285 23.66c-2.566-0.973-4.358-3.407-4.365-6.261v-0.001c0-0.265-0.215-0.48-0.48-0.48s-0.48 0.215-0.48 0.48v0c0.008 3.265 2.058 6.049 4.939 7.144l0.053 0.018c0.044 0.014 0.094 0.023 0.146 0.023 0.265 0 0.48-0.215 0.48-0.48 0-0.198-0.12-0.368-0.29-0.441l-0.003-0.001zM24.695 22.659c-0.887 0.698-1.976 1.179-3.165 1.346l-0.035 0.004c-0.252 0.016-0.451 0.225-0.451 0.48 0 0.266 0.215 0.481 0.481 0.481 0.011 0 0.021-0 0.032-0.001l-0.001 0h0.064c1.402-0.198 2.647-0.752 3.677-1.567l-0.016 0.012c0.118-0.088 0.193-0.228 0.193-0.385 0-0.265-0.215-0.48-0.48-0.48-0.116 0-0.223 0.041-0.306 0.11l0.001-0.001h0.007zM22.185 17.398c-0.001-0.313-0.093-0.603-0.25-0.848l0.004 0.006 3.306-3.389c0.078-0.085 0.125-0.199 0.125-0.323 0-0.265-0.215-0.48-0.48-0.48-0.13 0-0.247 0.051-0.334 0.135l0-0-3.344 3.43c-0.188-0.084-0.409-0.134-0.64-0.134-0.884 0-1.6 0.716-1.6 1.6s0.716 1.6 1.6 1.6c0.883 0 1.599-0.715 1.6-1.598v-0h0.013zM20.585 18.038c-0.353 0-0.64-0.287-0.64-0.64s0.287-0.64 0.64-0.64c0.353 0 0.64 0.287 0.64 0.64v0c-0.002 0.35-0.284 0.634-0.634 0.637h-0l-0.006 0.003zM8 17.76c0-0.265-0.215-0.48-0.48-0.48h-5.76c-0.265 0-0.48 0.215-0.48 0.48s0.215 0.48 0.48 0.48h5.76c0.265 0 0.48-0.215 0.48-0.48v0zM8.479 21.76h-5.76c-0.265 0-0.48 0.215-0.48 0.48s0.215 0.48 0.48 0.48h5.76c0.265 0 0.48-0.215 0.48-0.48s-0.215-0.48-0.48-0.48v0zM8.479 12.48h-5.76c-0.265 0-0.48 0.215-0.48 0.48s0.215 0.48 0.48 0.48h5.76c0.265 0 0.48-0.215 0.48-0.48s-0.215-0.48-0.48-0.48v0z"></path>
        </symbol>
        <symbol id="icon-plus-list-4" viewBox="0 0 32 32">
            <path d="M6.88 22.8h0.848l-1.094 3.679c-0.012 0.040-0.019 0.086-0.019 0.134 0 0.265 0.215 0.48 0.481 0.48 0.149 0 0.282-0.068 0.37-0.174l0.001-0.001c0.040-0.049 0.069-0.105 0.088-0.166l1.175-3.953h3.326l1.176 3.953c0.066 0.192 0.245 0.327 0.455 0.327 0.265 0 0.48-0.215 0.48-0.48 0-0.042-0.005-0.084-0.016-0.123l0.001 0.003-1.094-3.679h0.863c0.265 0 0.48-0.215 0.48-0.48s-0.215-0.48-0.48-0.48h-1.149l-0.921-3.097c-0.010-0.032-0.021-0.059-0.035-0.084l0.001 0.003c0.989-0.511 1.654-1.526 1.656-2.696v-0c0-1.409-0.968-2.593-2.273-2.929v-2.237c0-0.265-0.215-0.48-0.48-0.48s-0.48 0.215-0.48 0.48v0 2.147c-1.574 0.106-2.823 1.417-2.823 3.018 0.001 1.139 0.63 2.131 1.56 2.648l0.015 0.008c-0.024 0.035-0.044 0.076-0.058 0.119l-0.001 0.003-0.921 3.096h-1.133c-0.265 0-0.48 0.215-0.48 0.48s0.215 0.48 0.48 0.48v0zM8.377 15.966c0-1.14 0.928-2.068 2.068-2.068 1.142 0.001 2.067 0.926 2.068 2.068v0c-0.001 1.142-0.926 2.067-2.068 2.069h-0c-1.142-0.001-2.068-0.926-2.069-2.068v-0zM9.854 19.018c0.007-0.023 0.012-0.050 0.015-0.078l0-0.002c0.19 0.037 0.383 0.056 0.576 0.057 0.161 0 0.319-0.016 0.473-0.040 0.003 0.021 0.006 0.043 0.012 0.064l0.839 2.822h-2.755l0.839-2.822zM17.12 26.96h2.56c0.265 0 0.48-0.215 0.48-0.48v0-12.802c-0-0.066-0.013-0.128-0.037-0.185l0.001 0.003-1.28-3.126c-0.074-0.176-0.245-0.298-0.444-0.298s-0.37 0.122-0.443 0.295l-0.001 0.003-1.28 3.126c-0.023 0.054-0.036 0.116-0.036 0.182 0 0.004 0 0.008 0 0.011v-0.001 12.791c0 0.265 0.215 0.48 0.48 0.48v0zM17.6 26v-0.96h1.6v0.96h-1.6zM18.4 11.819l0.8 1.954v10.307h-1.6v-10.307l0.8-1.954z"></path>
            <path d="M23.2 5.2h-19.2c-0.265 0-0.48 0.215-0.48 0.479v24.64c0 0.265 0.215 0.48 0.48 0.48v0h19.2c0.265 0 0.48-0.215 0.48-0.479v-24.64c0-0 0-0 0-0 0-0.265-0.215-0.48-0.48-0.48v0zM22.72 29.84h-18.24v-23.68h18.24v23.68z"></path>
            <path d="M27.040 1.36h-19.2c-0.265 0-0.48 0.215-0.48 0.48v2.56c0 0.265 0.215 0.48 0.48 0.48s0.48-0.215 0.48-0.48v-2.080h18.24v23.68h-1.76c-0.265 0-0.48 0.215-0.48 0.48s0.215 0.48 0.48 0.48h2.24c0.265 0 0.48-0.215 0.48-0.48v0-24.64c0-0.265-0.215-0.48-0.48-0.48v0z"></path>
        </symbol>
        <symbol id="icon-instagram-1" viewBox="0 0 32 32">
            <path stroke-linejoin="round" stroke-linecap="round" stroke-miterlimit="4" stroke-width="2.6667" d="M22.667 2.667h-13.333c-3.682 0-6.667 2.985-6.667 6.667v0 13.333c0 3.682 2.985 6.667 6.667 6.667v0h13.333c3.682 0 6.667-2.985 6.667-6.667v0-13.333c0-3.682-2.985-6.667-6.667-6.667v0z"></path>
            <path stroke-linejoin="round" stroke-linecap="round" stroke-miterlimit="4" stroke-width="2.6667" d="M21.333 15.16c0.037 0.235 0.058 0.506 0.058 0.783 0 2.946-2.388 5.334-5.334 5.334-2.67 0-4.881-1.961-5.272-4.521l-0.004-0.030c-0.037-0.235-0.058-0.506-0.058-0.783 0-2.946 2.388-5.334 5.334-5.334 2.67 0 4.881 1.961 5.272 4.521l0.004 0.030zM23.333 8.667h0.013"></path>
        </symbol>
        <symbol id="icon-facebook-1" viewBox="0 0 32 32">
            <path stroke-linejoin="round" stroke-linecap="round" stroke-miterlimit="4" stroke-width="2.6667" d="M24 2.667h-4c-3.682 0-6.667 2.985-6.667 6.667v0 4h-4v5.333h4v10.667h5.333v-10.667h4l1.333-5.333h-5.333v-4c0-0.736 0.597-1.333 1.333-1.333v0h4v-5.333z"></path>
        </symbol>
        <symbol id="icon-home-contact" viewBox="0 0 32 32">
            <path fill="#fff" style="fill: var(--color1, #fff)" d="M16 0c8.837 0 16 7.163 16 16s-7.163 16-16 16c-8.837 0-16-7.163-16-16s7.163-16 16-16z"></path>
            <path fill="none" stroke="#141718" style="stroke: var(--color2, #141718)" stroke-linejoin="miter" stroke-linecap="round" stroke-miterlimit="4" stroke-width="0.7033" d="M13.503 18.569l4.642-5.139M18.145 13.431v3.854M18.145 13.431h-3.481"></path>
            <path fill="#000" style="fill: var(--color3, #000)" d="M26.414 21.739l-0.241 0.433c-0.106-0.044-0.229-0.069-0.358-0.069-0.012 0-0.023 0-0.035 0.001l0.002-0c-0.13 0.004-0.252 0.035-0.363 0.086l0.006-0.002c-0.113 0.049-0.215 0.119-0.307 0.208s-0.172 0.193-0.237 0.312c-0.107 0.186-0.17 0.408-0.17 0.645 0 0.016 0 0.031 0.001 0.047l-0-0.002c0.008 0.242 0.086 0.481 0.233 0.716 0.148 0.234 0.371 0.447 0.67 0.638s0.578 0.302 0.84 0.331c0.263 0.028 0.495-0.011 0.698-0.118 0.203-0.108 0.365-0.271 0.485-0.487 0.066-0.119 0.114-0.243 0.143-0.372 0.020-0.083 0.031-0.179 0.031-0.277 0-0.039-0.002-0.078-0.005-0.116l0 0.005c-0.013-0.14-0.050-0.268-0.105-0.385l0.003 0.007c-0.056-0.123-0.137-0.236-0.242-0.338l0.241-0.433c0.158 0.145 0.282 0.306 0.373 0.481s0.15 0.359 0.176 0.549c0.025 0.19 0.019 0.381-0.019 0.572-0.043 0.21-0.115 0.396-0.212 0.566l0.005-0.009c-0.17 0.305-0.392 0.53-0.668 0.676s-0.583 0.201-0.923 0.168c-0.34-0.033-0.692-0.167-1.055-0.4s-0.64-0.503-0.828-0.809c-0.189-0.306-0.289-0.623-0.3-0.953s0.068-0.647 0.237-0.952c0.098-0.177 0.217-0.329 0.357-0.459l0.001-0.001c0.13-0.12 0.283-0.218 0.452-0.286l0.010-0.003c0.149-0.060 0.321-0.095 0.501-0.095 0.011 0 0.021 0 0.032 0l-0.002-0c0.186 0.002 0.376 0.044 0.571 0.125zM4.518 25.915l-0.096-0.050 0.472-1.403-1.463 0.223-0.033-0.103 1.271-0.796-1.068-0.914 0.057-0.098 1.393 0.369-0.137-1.425 0.107-0.039 0.728 1.21 0.992-1.115 0.096 0.050-0.459 1.392 1.45-0.213 0.033 0.103-1.269 0.785 1.067 0.925-0.057 0.098-1.38-0.38 0.124 1.435-0.107 0.039-0.716-1.209-1.003 1.115zM19.422 4.386l0.439 0.23c-0.015 0.069-0.023 0.149-0.023 0.231 0 0.205 0.053 0.398 0.147 0.566l-0.003-0.006c0.062 0.116 0.141 0.221 0.238 0.313s0.205 0.17 0.326 0.233c0.219 0.115 0.442 0.161 0.669 0.139 0.225-0.023 0.437-0.12 0.636-0.29 0.198-0.171 0.365-0.42 0.502-0.746s0.2-0.63 0.19-0.909c-0.011-0.28-0.081-0.524-0.21-0.731-0.129-0.206-0.306-0.371-0.517-0.482l-0.007-0.003c-0.107-0.058-0.23-0.103-0.36-0.128l-0.008-0.001c-0.060-0.012-0.128-0.019-0.198-0.019-0.060 0-0.118 0.005-0.175 0.015l0.006-0.001c-0.128 0.022-0.242 0.068-0.343 0.133l0.004-0.002c-0.107 0.067-0.2 0.159-0.281 0.275l-0.439-0.229c0.114-0.176 0.246-0.317 0.397-0.424s0.314-0.179 0.488-0.219c0.091-0.020 0.196-0.032 0.303-0.032 0.083 0 0.164 0.007 0.243 0.020l-0.009-0.001c0.206 0.034 0.391 0.099 0.56 0.191l-0.009-0.005c0.302 0.156 0.548 0.383 0.722 0.659l0.004 0.008c0.175 0.283 0.271 0.606 0.288 0.968s-0.058 0.743-0.224 1.141c-0.166 0.398-0.379 0.706-0.639 0.924s-0.542 0.343-0.849 0.374c-0.307 0.032-0.615-0.033-0.924-0.195-0.185-0.096-0.343-0.214-0.481-0.352l-0-0c-0.134-0.134-0.246-0.29-0.331-0.462l-0.005-0.010c-0.082-0.162-0.14-0.35-0.163-0.549l-0.001-0.008c-0.008-0.061-0.012-0.132-0.012-0.204 0-0.145 0.017-0.286 0.050-0.42l-0.003 0.012zM15.074 2.847c0.038-0.43 0.145-0.782 0.324-1.058s0.407-0.465 0.685-0.568c0.279-0.104 0.587-0.113 0.925-0.028 0.345 0.086 0.642 0.254 0.882 0.482l-0.001-0.001c0.249 0.236 0.435 0.529 0.559 0.881s0.167 0.742 0.13 1.172c-0.037 0.43-0.145 0.782-0.324 1.058s-0.407 0.465-0.685 0.568-0.587 0.113-0.925 0.028c-0.345-0.086-0.642-0.254-0.882-0.482l0.001 0.001c-0.249-0.236-0.435-0.529-0.559-0.881s-0.167-0.742-0.13-1.172zM15.54 2.963c-0.031 0.353 0.001 0.666 0.095 0.937 0.092 0.271 0.231 0.494 0.415 0.668s0.395 0.29 0.635 0.351c0.241 0.060 0.463 0.053 0.67-0.023 0.204-0.076 0.375-0.221 0.511-0.435 0.135-0.214 0.217-0.498 0.248-0.851s0-0.665-0.093-0.936c-0.094-0.271-0.232-0.494-0.415-0.667-0.173-0.165-0.388-0.288-0.627-0.349l-0.010-0.002c-0.24-0.060-0.463-0.052-0.667 0.024-0.206 0.076-0.376 0.221-0.511 0.435-0.136 0.214-0.219 0.498-0.25 0.85zM11.95 5.786l-1.47-3.819 0.471-0.088 3.346 2.592 0.039-0.007-1.154-2.998 0.487-0.090 1.469 3.819-0.471 0.088-3.357-2.598-0.039 0.007 1.157 3.006-0.479 0.089zM5.819 11.652l0.416 0.141-1.476 2.691-0.416-0.141 0.619-1.128-3.459-1.172 0.238-0.435 3.459 1.172 0.619-1.128zM6.398 4.338l0.365-0.37 1.86 3.942-0.359 0.365-3.969-1.802 0.365-0.37 3.311 1.547 0.022-0.023-1.595-3.289zM7.402 5.597l-1.47 1.491-0.313-0.308 1.47-1.491 0.313 0.308zM5.056 11.185l0.163-0.468c0.136 0.037 0.265 0.046 0.385 0.026 0.124-0.019 0.235-0.063 0.332-0.127l-0.003 0.002c0.1-0.063 0.187-0.145 0.262-0.246 0.161-0.224 0.257-0.504 0.257-0.807 0-0.092-0.009-0.181-0.026-0.268l0.001 0.009c-0.046-0.246-0.158-0.48-0.335-0.703-0.179-0.222-0.425-0.414-0.741-0.575s-0.601-0.243-0.856-0.243c-0.256 0.001-0.472 0.067-0.649 0.199s-0.307 0.316-0.388 0.55c-0.045 0.128-0.071 0.26-0.079 0.396s0.004 0.268 0.035 0.398c0.032 0.132 0.085 0.257 0.157 0.374 0.073 0.119 0.168 0.225 0.284 0.316l-0.163 0.468c-0.326-0.243-0.567-0.582-0.684-0.975l-0.003-0.013c-0.046-0.155-0.072-0.334-0.072-0.519 0-0.023 0-0.047 0.001-0.070l-0 0.003c0.007-0.213 0.047-0.415 0.115-0.604l-0.004 0.014c0.115-0.33 0.293-0.584 0.533-0.763s0.527-0.27 0.858-0.274c0.331-0.004 0.689 0.093 1.073 0.29s0.69 0.441 0.919 0.731c0.229 0.29 0.374 0.603 0.436 0.937 0.021 0.106 0.033 0.229 0.033 0.354 0 0.23-0.041 0.451-0.115 0.656l0.004-0.013c-0.066 0.194-0.158 0.363-0.274 0.512l0.003-0.004c-0.113 0.145-0.245 0.26-0.397 0.346-0.142 0.083-0.31 0.138-0.489 0.155l-0.005 0c-0.178 0.018-0.367-0.003-0.566-0.064zM11.069 5.345l0.2 0.391-2.346 1.979-0.2-0.391 0.984-0.83-1.661-3.253 0.379-0.319 1.661 3.253 0.983-0.83zM5.070 17.811l0.072 0.49-2.704 0.163c-0.033 0.003-0.071 0.004-0.109 0.004-0.243 0-0.473-0.057-0.677-0.158l0.009 0.004c-0.244-0.122-0.445-0.297-0.593-0.511l-0.003-0.005c-0.16-0.229-0.263-0.501-0.309-0.819s-0.025-0.598 0.065-0.841c0.087-0.238 0.238-0.436 0.433-0.578l0.003-0.002c0.2-0.142 0.44-0.222 0.719-0.239l2.704-0.163 0.072 0.491-2.664 0.161c-0.2 0.012-0.371 0.066-0.513 0.162-0.14 0.096-0.248 0.231-0.309 0.388l-0.002 0.006c-0.064 0.167-0.079 0.364-0.046 0.589s0.105 0.416 0.217 0.573c0.113 0.157 0.253 0.273 0.42 0.35 0.168 0.077 0.352 0.11 0.552 0.098l2.664-0.161zM5.034 20.951c0.194-0.044 0.352-0.172 0.435-0.343l0.002-0.004c0.093-0.183 0.127-0.398 0.1-0.645-0.019-0.18-0.065-0.334-0.138-0.462-0.065-0.119-0.158-0.215-0.27-0.283l-0.003-0.002c-0.081-0.046-0.178-0.074-0.281-0.074-0.027 0-0.054 0.002-0.081 0.006l0.003-0c-0.104 0.010-0.198 0.051-0.273 0.113l0.001-0.001c-0.070 0.062-0.128 0.137-0.169 0.222l-0.002 0.004c-0.042 0.088-0.074 0.179-0.098 0.274-0.016 0.064-0.034 0.151-0.048 0.239l-0.002 0.018-0.067 0.427c-0.017 0.109-0.042 0.232-0.077 0.368-0.035 0.137-0.089 0.271-0.161 0.4-0.070 0.131-0.167 0.243-0.289 0.338s-0.279 0.153-0.469 0.176c-0.043 0.006-0.093 0.010-0.143 0.010-0.171 0-0.333-0.040-0.476-0.112l0.006 0.003c-0.19-0.092-0.348-0.242-0.476-0.449-0.128-0.206-0.208-0.465-0.241-0.777-0.031-0.292-0.011-0.55 0.060-0.774 0.071-0.223 0.185-0.407 0.34-0.549 0.153-0.138 0.344-0.236 0.556-0.276l0.007-0.001 0.054 0.509c-0.152 0.032-0.273 0.099-0.364 0.201-0.089 0.104-0.151 0.228-0.185 0.373-0.021 0.091-0.032 0.195-0.032 0.301 0 0.057 0.003 0.113 0.010 0.168l-0.001-0.007c0.020 0.188 0.068 0.353 0.145 0.495 0.078 0.142 0.177 0.25 0.295 0.324 0.12 0.074 0.255 0.102 0.403 0.083 0.135-0.017 0.241-0.068 0.317-0.154s0.135-0.193 0.175-0.323c0.040-0.13 0.072-0.269 0.096-0.416l0.089-0.518c0.058-0.329 0.161-0.597 0.31-0.803s0.361-0.326 0.635-0.36c0.228-0.028 0.433 0.009 0.615 0.112 0.184 0.103 0.334 0.254 0.45 0.452 0.117 0.199 0.19 0.428 0.218 0.688 0.028 0.262 0.006 0.501-0.067 0.717-0.071 0.215-0.18 0.392-0.329 0.532-0.14 0.134-0.322 0.227-0.524 0.257l-0.005 0.001-0.051-0.477zM27.066 6.966l-0.001 0.116-1.357 0.42 0.795 1.178-0.072 0.091-1.189-0.661-0.311 1.507-0.105 0.008-0.275-1.471-1.122 0.979-0.077-0.072 0.698-1.38-1.336-0.219 0.001-0.116 1.343-0.425-0.781-1.173 0.072-0.091 1.179 0.666 0.321-1.512 0.105-0.008 0.261 1.466 1.136-0.974 0.077 0.072-0.702 1.369 1.341 0.23zM11.182 26.575l-0.396-0.298c0.049-0.141 0.071-0.279 0.068-0.416-0.003-0.142-0.029-0.276-0.076-0.401l0.003 0.008c-0.048-0.134-0.111-0.25-0.19-0.353l0.002 0.003c-0.081-0.108-0.176-0.202-0.284-0.284-0.198-0.149-0.409-0.23-0.633-0.243-0.223-0.012-0.443 0.051-0.662 0.19-0.217 0.14-0.415 0.362-0.595 0.668s-0.284 0.599-0.314 0.879c-0.029 0.281 0.005 0.536 0.101 0.764 0.098 0.23 0.249 0.421 0.439 0.564l0.003 0.003c0.109 0.082 0.222 0.144 0.341 0.187s0.238 0.064 0.357 0.063c0.121-0.002 0.237-0.027 0.35-0.077 0.114-0.050 0.218-0.127 0.313-0.231l0.396 0.298c-0.136 0.158-0.285 0.279-0.447 0.361-0.147 0.078-0.32 0.129-0.503 0.142l-0.004 0c-0.024 0.001-0.051 0.002-0.079 0.002-0.16 0-0.314-0.027-0.458-0.077l0.010 0.003c-0.195-0.067-0.364-0.159-0.514-0.275l0.004 0.003c-0.268-0.2-0.478-0.463-0.609-0.768l-0.005-0.012c-0.13-0.311-0.178-0.648-0.144-1.013s0.162-0.734 0.38-1.106 0.47-0.647 0.754-0.824c0.284-0.177 0.577-0.257 0.881-0.241s0.594 0.13 0.873 0.34c0.165 0.124 0.305 0.267 0.419 0.427 0.214 0.295 0.342 0.665 0.342 1.064 0 0.015-0 0.030-0.001 0.045l0-0.002c-0.006 0.22-0.050 0.427-0.126 0.619l0.004-0.012zM14.702 28.33c-0.079 0.424-0.224 0.78-0.436 1.068s-0.468 0.496-0.768 0.626c-0.3 0.13-0.623 0.171-0.969 0.123s-0.637-0.175-0.875-0.38c-0.238-0.205-0.405-0.473-0.502-0.804s-0.105-0.708-0.026-1.132c0.079-0.424 0.224-0.78 0.436-1.067s0.468-0.496 0.769-0.626 0.623-0.171 0.969-0.122c0.346 0.048 0.638 0.175 0.876 0.38s0.405 0.473 0.502 0.804 0.105 0.708 0.026 1.132zM14.228 28.264c0.065-0.348 0.061-0.651-0.012-0.907-0.071-0.256-0.195-0.459-0.371-0.61-0.175-0.151-0.385-0.243-0.63-0.278-0.057-0.009-0.123-0.014-0.19-0.014-0.185 0-0.361 0.039-0.52 0.109l0.008-0.003c-0.221 0.096-0.412 0.255-0.574 0.478s-0.274 0.509-0.339 0.857c-0.065 0.348-0.062 0.651 0.010 0.907 0.073 0.256 0.197 0.459 0.371 0.61 0.177 0.151 0.387 0.243 0.633 0.278s0.478 0.004 0.699-0.091c0.222-0.095 0.414-0.255 0.575-0.478 0.162-0.223 0.275-0.509 0.34-0.857zM19 26.482l-0.658 4.039-0.479-0.002-1.713-3.179h-0.040l-0.517 3.171-0.495-0.002 0.658-4.038 0.48 0.001 1.72 3.187h0.040l0.518-3.179 0.487 0.002zM19.313 26.687l-0.064-0.435 2.857-1.121 0.064 0.435-1.198 0.47 0.531 3.614-0.461 0.181-0.531-3.614-1.198 0.47zM24.154 28.562l-0.378 0.356-1.138-4.461 0.372-0.351 3.324 2.399-0.378 0.357-2.767-2.048-0.023 0.022 0.988 3.727zM23.422 27.090l1.523-1.437 0.239 0.369-1.523 1.437-0.24-0.369zM25.973 20.599l-0.408-0.164 1.278-2.791 0.408 0.164-0.536 1.17 3.388 1.364-0.206 0.45-3.388-1.364-0.536 1.17zM26.518 13.731l0.005-0.496 2.67-0.457c0.276-0.047 0.521-0.024 0.737 0.071 0.215 0.094 0.383 0.249 0.505 0.466 0.121 0.217 0.18 0.486 0.177 0.807s-0.068 0.611-0.193 0.871c-0.125 0.257-0.299 0.472-0.511 0.64l-0.004 0.003c-0.206 0.161-0.457 0.274-0.73 0.321l-0.010 0.001-2.67 0.457 0.005-0.495 2.631-0.451c0.201-0.034 0.379-0.112 0.53-0.224l-0.003 0.002c0.153-0.114 0.274-0.26 0.364-0.437 0.088-0.179 0.133-0.382 0.135-0.609s-0.039-0.416-0.124-0.565c-0.080-0.142-0.204-0.252-0.352-0.312l-0.005-0.002c-0.153-0.062-0.328-0.076-0.525-0.042l-2.631 0.451zM26.331 10.232c-0.171 0.121-0.28 0.29-0.329 0.508s-0.038 0.445 0.033 0.682c0.052 0.174 0.123 0.311 0.213 0.413 0.090 0.1 0.191 0.162 0.302 0.185s0.224 0.001 0.338-0.062c0.096-0.053 0.171-0.123 0.224-0.211 0.052-0.089 0.089-0.185 0.111-0.289 0.020-0.103 0.032-0.207 0.035-0.309s0.001-0.195-0.004-0.277l-0.021-0.452c-0.003-0.062-0.005-0.134-0.005-0.206 0-0.067 0.002-0.134 0.004-0.2l-0 0.009c0.007-0.166 0.031-0.323 0.072-0.474l-0.003 0.015c0.039-0.157 0.104-0.305 0.197-0.444s0.223-0.255 0.391-0.348c0.193-0.107 0.385-0.148 0.574-0.124 0.189 0.023 0.361 0.115 0.517 0.276 0.155 0.16 0.278 0.39 0.368 0.691 0.084 0.281 0.116 0.547 0.095 0.798-0.019 0.25-0.092 0.479-0.206 0.682l0.004-0.008c-0.113 0.197-0.267 0.36-0.451 0.479l-0.005 0.003-0.147-0.49c0.132-0.088 0.229-0.199 0.291-0.335 0.061-0.136 0.093-0.284 0.096-0.441 0.001-0.159-0.021-0.316-0.068-0.471-0.054-0.181-0.13-0.329-0.226-0.444-0.098-0.114-0.208-0.186-0.33-0.217-0.123-0.030-0.25-0.009-0.38 0.063-0.113 0.060-0.202 0.153-0.256 0.266l-0.002 0.004c-0.053 0.114-0.084 0.243-0.096 0.388s-0.013 0.295-0.007 0.452l0.019 0.552c0.012 0.351-0.031 0.657-0.127 0.918-0.092 0.257-0.27 0.463-0.499 0.589l-0.006 0.003c-0.2 0.111-0.393 0.148-0.578 0.113-0.186-0.037-0.351-0.133-0.494-0.289-0.145-0.156-0.255-0.36-0.329-0.61-0.055-0.17-0.086-0.365-0.086-0.567 0-0.062 0.003-0.122 0.009-0.183l-0.001 0.008c0.023-0.242 0.088-0.459 0.196-0.653 0.102-0.188 0.247-0.341 0.424-0.449l0.005-0.003 0.138 0.459z"></path>
        </symbol>
        <symbol id="icon-reviews-icon" viewBox="0 0 33 32">
            <path d="M0 4.103c0-1.088 0.432-2.132 1.202-2.901s1.813-1.202 2.901-1.202h24.615c1.088 0 2.132 0.432 2.901 1.202s1.202 1.813 1.202 2.901v16.41c0 1.088-0.432 2.132-1.202 2.901s-1.813 1.202-2.901 1.202h-5.128c-0.318 0-0.633 0.074-0.917 0.217s-0.533 0.349-0.724 0.604l-3.897 5.196c-0.191 0.255-0.439 0.462-0.724 0.604s-0.599 0.217-0.917 0.217-0.633-0.074-0.917-0.217c-0.285-0.142-0.533-0.349-0.724-0.604l-3.897-5.196c-0.191-0.255-0.439-0.462-0.724-0.604s-0.599-0.217-0.917-0.217h-5.128c-1.088 0-2.132-0.432-2.901-1.202s-1.202-1.813-1.202-2.901v-16.41zM14.757 9.776c-0.135-0.202-0.291-0.389-0.466-0.558-0.274-0.282-0.601-0.508-0.962-0.665l-0.016-0.008c-0.486-0.226-1.015-0.342-1.551-0.341-1.965 0-3.557 1.53-3.557 3.419 0 1.887 1.592 3.417 3.557 3.417 0.704 0 1.358-0.195 1.91-0.533-0.281 0.798-0.8 1.649-1.662 2.503-0.081 0.079-0.145 0.174-0.188 0.279s-0.064 0.218-0.062 0.331c0.002 0.113 0.027 0.225 0.074 0.328s0.115 0.196 0.199 0.272c0.355 0.328 0.917 0.318 1.26-0.020 2.736-2.726 2.81-5.657 1.93-7.602-0.129-0.287-0.285-0.562-0.466-0.82v-0.002zM22.564 14.509c-0.279 0.798-0.8 1.649-1.662 2.503-0.081 0.079-0.145 0.174-0.188 0.279s-0.064 0.218-0.062 0.331 0.028 0.225 0.075 0.328c0.047 0.103 0.115 0.196 0.199 0.272 0.353 0.328 0.915 0.318 1.257-0.020 2.736-2.726 2.81-5.657 1.932-7.602-0.13-0.287-0.287-0.562-0.468-0.82-0.135-0.203-0.291-0.39-0.466-0.56-0.274-0.282-0.601-0.508-0.962-0.665l-0.016-0.008c-0.485-0.225-1.014-0.341-1.549-0.341-1.963 0-3.557 1.53-3.557 3.419 0 1.887 1.594 3.417 3.557 3.417 0.704 0 1.358-0.195 1.91-0.533h-0.002z"></path>
        </symbol>
        <symbol id="icon-tiktok-icon" viewBox="0 0 28 32">
            <path d="M23.738 6.414c-1.724-1.124-2.967-2.923-3.355-5.018-0.084-0.453-0.13-0.919-0.13-1.396h-5.501l-0.009 22.048c-0.092 2.469-2.124 4.451-4.615 4.451-0.774 0-1.503-0.193-2.145-0.532-1.472-0.774-2.48-2.317-2.48-4.092 0-2.55 2.075-4.625 4.624-4.625 0.476 0 0.933 0.079 1.364 0.214v-5.616c-0.447-0.061-0.901-0.099-1.364-0.099-5.583 0-10.126 4.542-10.126 10.126 0 3.425 1.711 6.457 4.323 8.29 1.644 1.155 3.645 1.835 5.803 1.835 5.584 0 10.126-4.543 10.126-10.126v-11.181c2.158 1.549 4.801 2.461 7.654 2.461v-5.502c-1.537 0-2.968-0.456-4.169-1.239z"></path>
        </symbol>
        <symbol id="icon-threads-icon" viewBox="0 0 28 32">
            <path d="M21.423 14.831c-0.071-0.038-0.209-0.102-0.349-0.163l-0.071-0.028c-0.247-4.551-2.734-7.157-6.909-7.183-2.409-0.016-4.566 0.966-5.91 3.006l2.296 1.575c0.955-1.449 2.454-1.758 3.558-1.758 0.013 0 0.026 0 0.038 0 1.375 0.009 2.412 0.408 3.084 1.188 0.489 0.568 0.816 1.352 0.977 2.342-1.219-0.207-2.537-0.271-3.947-0.19-3.97 0.229-6.522 2.544-6.351 5.761 0.087 1.632 0.9 3.036 2.289 3.953 1.175 0.775 2.687 1.154 4.26 1.069 2.076-0.114 3.705-0.906 4.841-2.355 0.863-1.1 1.409-2.525 1.65-4.322 0.989 0.597 1.723 1.383 2.128 2.328 0.689 1.606 0.729 4.245-1.424 6.396-1.886 1.885-4.154 2.7-7.581 2.725-3.802-0.028-6.677-1.247-8.546-3.624-1.75-2.225-2.655-5.439-2.689-9.553 0.034-4.114 0.938-7.328 2.689-9.553 1.869-2.376 4.744-3.595 8.546-3.624 3.829 0.028 6.754 1.253 8.695 3.641 0.952 1.171 1.669 2.643 2.142 4.36l2.691-0.718c-0.573-2.113-1.475-3.934-2.703-5.445-2.488-3.061-6.127-4.63-10.816-4.662h-0.019c-4.679 0.032-8.277 1.607-10.695 4.68-2.151 2.735-3.261 6.539-3.298 11.309l-0 0.011 0 0.011c0.037 4.769 1.147 8.574 3.298 11.309 2.417 3.073 6.016 4.648 10.695 4.68h0.019c4.16-0.029 7.092-1.118 9.508-3.532 3.16-3.157 3.065-7.115 2.024-9.545-0.747-1.742-2.172-3.158-4.121-4.092zM14.24 21.584c-1.74 0.098-3.548-0.683-3.637-2.356-0.066-1.24 0.883-2.624 3.744-2.789 0.328-0.019 0.649-0.028 0.965-0.028 1.039 0 2.011 0.101 2.895 0.294-0.33 4.117-2.263 4.786-3.967 4.879z"></path>
        </symbol>
        <symbol id="icon-youtube-icon" viewBox="0 0 32 32">
            <path d="M31.673 9.602s-0.312-2.206-1.274-3.174c-1.218-1.274-2.582-1.282-3.206-1.356-4.475-0.326-11.195-0.326-11.195-0.326h-0.012s-6.718 0-11.195 0.326c-0.626 0.076-1.988 0.082-3.206 1.356-0.962 0.968-1.268 3.174-1.268 3.174s-0.318 2.588-0.318 5.182v2.425c0 2.588 0.318 5.182 0.318 5.182s0.312 2.206 1.268 3.176c1.218 1.274 2.818 1.233 3.533 1.368 2.562 0.244 10.882 0.318 10.882 0.318s6.726-0.012 11.201-0.332c0.626-0.074 1.988-0.081 3.206-1.356 0.962-0.968 1.274-3.177 1.274-3.177s0.318-2.588 0.318-5.182v-2.425c-0.006-2.588-0.325-5.182-0.325-5.182l-0.002 0.002zM12.683 20.152v-8.994l8.645 4.512-8.645 4.482z"></path>
        </symbol>
    </defs>
</svg>