<svg aria-hidden="true" style="position: absolute; width: 0; height: 0; overflow: hidden;" version="1.1" xmlns="http://www.w3.org/2000/svg" xmlns:xlink="http://www.w3.org/1999/xlink">
    <defs>
        <symbol id="icon-logo-cosmozoo" viewBox="0 0 262 32">
            <path fill="#fff" style="fill: var(--color1, #fff)" d="M0 16.023c0-3.074 0.627-5.82 1.879-8.235 1.28-2.447 3.006-4.341 5.184-5.685 2.204-1.372 4.668-2.057 7.39-2.057 3.183 0 5.973 0.894 8.369 2.684 2.394 1.79 4.068 4.267 5.020 7.43h-6.571c-0.653-1.491-1.577-2.611-2.775-3.356-1.171-0.745-2.532-1.118-4.085-1.118-1.658 0-3.144 0.433-4.448 1.299-1.28 0.834-2.287 2.027-3.021 3.578-0.708 1.551-1.062 3.371-1.062 5.459 0 2.061 0.354 3.881 1.062 5.463 0.734 1.551 1.741 2.76 3.021 3.624 1.306 0.836 2.79 1.254 4.45 1.254 1.551 0 2.912-0.373 4.083-1.118 1.197-0.776 2.121-1.911 2.775-3.401h6.573c-0.952 3.192-2.626 5.685-5.022 7.473-2.366 1.762-5.158 2.641-8.367 2.641-2.722 0-5.186-0.67-7.39-2.014-2.178-1.372-3.906-3.266-5.184-5.685-1.254-2.413-1.88-5.158-1.88-8.232zM48.787 32c-0.032 0-0.069 0-0.107 0-2.681 0-5.183-0.767-7.299-2.093l0.057 0.034c-2.232-1.372-4.002-3.266-5.308-5.685-1.306-2.447-1.958-5.205-1.958-8.279 0-3.044 0.651-5.773 1.958-8.188 1.306-2.447 3.076-4.358 5.308-5.73 2.058-1.293 4.56-2.060 7.242-2.060 0.038 0 0.075 0 0.113 0l-0.006-0c2.692 0 5.143 0.687 7.347 2.059 2.232 1.372 3.987 3.281 5.267 5.728 1.306 2.417 1.96 5.146 1.96 8.19 0 3.074-0.653 5.833-1.96 8.28-1.28 2.417-3.034 4.311-5.267 5.685-2.057 1.292-4.559 2.058-7.239 2.058-0.039 0-0.077-0-0.116-0l0.006 0zM48.787 26.406c1.713 0 3.224-0.418 4.531-1.254 1.306-0.866 2.327-2.089 3.061-3.671s1.103-3.415 1.103-5.504c0-2.089-0.367-3.908-1.103-5.459-0.734-1.581-1.754-2.792-3.061-3.625-1.306-0.836-2.818-1.254-4.531-1.254-1.715 0-3.24 0.418-4.574 1.254-1.306 0.834-2.327 2.042-3.061 3.624-0.734 1.553-1.103 3.373-1.103 5.461 0 2.089 0.367 3.925 1.103 5.506 0.734 1.581 1.754 2.805 3.061 3.671 1.335 0.834 2.859 1.252 4.574 1.252zM80.284 32c-1.988 0-3.784-0.373-5.389-1.118-1.552-0.725-2.824-1.826-3.735-3.19l-0.021-0.033c-0.926-1.402-1.402-3.059-1.431-4.969h6.125c0.081 1.284 0.489 2.298 1.224 3.044 0.762 0.747 1.798 1.12 3.104 1.12 1.333 0 2.381-0.343 3.144-1.030 0.762-0.715 1.143-1.641 1.143-2.775 0-0.926-0.258-1.687-0.776-2.283-0.527-0.598-1.183-1.070-1.925-1.375l-0.034-0.013c-0.762-0.358-1.824-0.745-3.185-1.163-1.85-0.597-3.36-1.178-4.531-1.745-1.143-0.597-2.136-1.478-2.98-2.641-0.817-1.193-1.224-2.775-1.224-4.744 0-1.85 0.42-3.464 1.263-4.834 0.853-1.371 2.064-2.447 3.504-3.113l0.050-0.021c1.525-0.745 3.266-1.118 5.225-1.118 2.94 0 5.321 0.791 7.145 2.372 1.85 1.551 2.871 3.729 3.061 6.534h-6.287c-0.031-1.058-0.513-1.997-1.26-2.635l-0.005-0.004c-0.762-0.715-1.783-1.075-3.063-1.075-1.114 0-2.014 0.312-2.694 0.941-0.653 0.625-0.979 1.536-0.979 2.729 0 0.836 0.245 1.536 0.734 2.103 0.518 0.536 1.143 0.984 1.879 1.342 0.76 0.329 1.822 0.715 3.183 1.165 1.85 0.597 3.362 1.193 4.531 1.788 1.171 0.599 2.178 1.493 3.021 2.686 0.845 1.193 1.267 2.76 1.267 4.7 0 0.018 0 0.040 0 0.062 0 1.686-0.44 3.269-1.211 4.641l0.025-0.048c-0.787 1.431-1.944 2.579-3.469 3.445-1.525 0.836-3.332 1.254-5.429 1.254zM129.225 0.448v31.24h-5.717v-20.32l-7.631 20.32h-4.329l-7.671-20.32v20.32h-5.717v-31.24h6.492l9.062 23.228 9.062-23.228h6.451zM150.938 32c-0.031 0-0.068 0-0.105 0-2.681 0-5.183-0.767-7.299-2.093l0.058 0.034c-2.232-1.372-4.002-3.266-5.308-5.685-1.306-2.447-1.958-5.205-1.958-8.279 0-3.044 0.651-5.773 1.958-8.188 1.306-2.447 3.076-4.358 5.308-5.73 2.058-1.293 4.56-2.060 7.242-2.060 0.037 0 0.074 0 0.111 0l-0.006-0c2.696 0 5.144 0.687 7.349 2.059 2.232 1.372 3.987 3.281 5.267 5.728 1.306 2.417 1.96 5.146 1.96 8.19 0 3.074-0.653 5.833-1.958 8.28-1.28 2.417-3.036 4.311-5.269 5.685-2.057 1.292-4.559 2.058-7.239 2.058-0.039 0-0.077-0-0.116-0l0.006 0zM150.938 26.406c1.715 0 3.226-0.418 4.533-1.254 1.306-0.866 2.327-2.089 3.063-3.671 0.734-1.581 1.101-3.415 1.101-5.504s-0.367-3.908-1.101-5.459c-0.734-1.581-1.756-2.792-3.063-3.625-1.306-0.836-2.818-1.254-4.531-1.254-1.715 0-3.24 0.418-4.574 1.254-1.306 0.834-2.327 2.042-3.061 3.624-0.734 1.553-1.103 3.373-1.103 5.461 0 2.089 0.367 3.925 1.103 5.506 0.734 1.581 1.756 2.805 3.061 3.671 1.335 0.834 2.859 1.252 4.574 1.252zM178.44 26.406h12.817v5.282h-19.432v-4.834l12.738-21.126h-12.738v-5.28h19.432v4.834l-12.819 21.124zM212.183 32c-0.032 0-0.069 0-0.107 0-2.681 0-5.184-0.767-7.3-2.093l0.058 0.034c-2.231-1.372-4-3.266-5.306-5.685-1.306-2.447-1.96-5.205-1.96-8.279 0-3.044 0.653-5.773 1.96-8.188 1.306-2.447 3.076-4.358 5.306-5.73 2.058-1.293 4.56-2.060 7.242-2.060 0.038 0 0.077 0 0.115 0l-0.006-0c2.694 0 5.144 0.687 7.349 2.059 2.231 1.372 3.987 3.281 5.267 5.728 1.306 2.417 1.96 5.146 1.96 8.19 0 3.074-0.653 5.833-1.96 8.28-1.28 2.417-3.036 4.311-5.267 5.685-2.058 1.292-4.559 2.058-7.239 2.058-0.039 0-0.077-0-0.115-0l0.006 0zM212.183 26.406c1.715 0 3.224-0.418 4.531-1.254 1.306-0.866 2.328-2.089 3.063-3.671s1.103-3.415 1.103-5.504c0-2.089-0.369-3.908-1.103-5.459-0.734-1.581-1.756-2.792-3.063-3.625-1.306-0.836-2.816-1.254-4.531-1.254s-3.24 0.418-4.572 1.254c-1.306 0.834-2.327 2.042-3.063 3.624-0.734 1.553-1.101 3.373-1.101 5.461 0 2.089 0.367 3.925 1.101 5.506 0.736 1.581 1.756 2.805 3.063 3.671 1.333 0.834 2.857 1.252 4.572 1.252zM247.072 32c-0.032 0-0.070 0-0.108 0-2.68 0-5.182-0.767-7.296-2.093l0.057 0.034c-2.232-1.372-4.002-3.266-5.308-5.685-1.306-2.447-1.96-5.205-1.96-8.279 0-3.044 0.653-5.773 1.96-8.188 1.306-2.447 3.076-4.358 5.308-5.73 2.057-1.293 4.559-2.060 7.239-2.060 0.038 0 0.076 0 0.114 0l-0.006-0c2.696 0 5.144 0.687 7.349 2.059 2.232 1.372 3.987 3.281 5.267 5.728 1.306 2.417 1.96 5.146 1.96 8.19 0 3.074-0.653 5.833-1.96 8.28-1.28 2.417-3.034 4.311-5.267 5.685-2.057 1.292-4.558 2.058-7.238 2.058-0.039 0-0.078-0-0.117-0l0.006 0zM247.072 26.406c1.715 0 3.226-0.418 4.533-1.254 1.306-0.866 2.327-2.089 3.061-3.671 0.736-1.581 1.103-3.415 1.103-5.504s-0.367-3.908-1.103-5.459c-0.734-1.581-1.754-2.792-3.061-3.625-1.306-0.836-2.818-1.254-4.533-1.254-1.713 0-3.238 0.418-4.572 1.254-1.306 0.834-2.327 2.042-3.061 3.624-0.736 1.553-1.103 3.373-1.103 5.461 0 2.089 0.367 3.925 1.103 5.506 0.734 1.581 1.754 2.805 3.061 3.671 1.335 0.834 2.859 1.252 4.572 1.252z"></path>
        </symbol>
        <symbol id="icon-menu" viewBox="0 0 42 32">
            <path stroke-linejoin="round" stroke-linecap="round" stroke-miterlimit="4" stroke-width="3.3103" d="M5.241 16h31.448M5.241 8h31.448M5.241 24h31.448"></path>
        </symbol>
        <symbol id="icon-arrow-down" viewBox="0 0 32 32">
            <path stroke-linejoin="miter" stroke-linecap="round" stroke-miterlimit="4" stroke-width="2.6667" d="M8.458 23.542l15.085-15.085M23.543 8.457v11.314M23.543 8.457h-11.314"></path>
        </symbol>
        <symbol id="icon-plus-list-1" viewBox="0 0 19 32">
            <path d="M15.774 3.661c-2.172-1.79-5.031-2.502-7.844-1.954-3.786 0.737-6.826 3.933-7.394 7.772-0.463 3.133 0.65 6.262 2.977 8.369 1.049 0.95 1.682 2.318 1.782 3.853 0.001 0.028 0.007 0.055 0.013 0.081v4.813c0 0.265 0.215 0.48 0.48 0.48v0h0.479c0.195 1.395 1.22 2.463 2.455 2.463h2.179c1.235 0 2.26-1.068 2.455-2.463h0.479c0.265 0 0.48-0.215 0.48-0.48v0-4.893c0-1.428 0.648-2.807 1.826-3.883 1.876-1.72 3.048-4.18 3.052-6.914v-0.001c0-0.004 0-0.008 0-0.012 0-2.906-1.325-5.502-3.404-7.218l-0.016-0.013zM8.114 12.771h-0.737c-0.407-0.001-0.737-0.331-0.737-0.738v-0c0.001-0.407 0.33-0.737 0.737-0.737h0c0.407 0.001 0.737 0.33 0.737 0.737v0.738zM11.509 12.033c0.001-0.407 0.331-0.737 0.738-0.737h0c0.407 0.001 0.737 0.33 0.737 0.737v0c-0.001 0.407-0.33 0.737-0.737 0.737h-0.737l-0.001-0.737zM11.22 22.147h2.134v3.967h-0.439l-0.003-0h-6.643v-3.967h4.597zM9.074 21.187v-7.456h1.477l0.011 7.456h-1.488zM10.901 28.577h-2.179c-0.716 0-1.317-0.641-1.484-1.503h5.147c-0.166 0.862-0.767 1.503-1.483 1.503zM15.493 17.111c-1.239 1.131-1.972 2.564-2.11 4.076h-1.861l-0.011-7.456h0.736c0.937-0.001 1.697-0.761 1.697-1.698v-0c-0.001-0.937-0.76-1.696-1.697-1.697h-0c-0.938 0.001-1.698 0.761-1.698 1.698v0l0.001 0.737h-1.476v-0.738c-0.001-0.937-0.76-1.696-1.697-1.697h-0c-0.937 0.001-1.696 0.761-1.697 1.697v0c0.001 0.937 0.76 1.696 1.697 1.697h0.738v7.456h-1.911c-0.203-1.601-0.916-3.029-2.046-4.051-2.089-1.892-3.088-4.703-2.672-7.518 0.509-3.443 3.234-6.309 6.628-6.97 2.53-0.492 5.1 0.147 7.050 1.754 1.88 1.552 3.069 3.882 3.069 6.491 0 0.004 0 0.008 0 0.012v-0.001c-0.003 2.455-1.056 4.663-2.733 6.201l-0.006 0.006z"></path>
            <path stroke-linejoin="miter" stroke-linecap="butt" stroke-miterlimit="4" stroke-width="0.32" d="M11.22 22.147h2.134v3.967h-0.439l-0.003-0h-6.643v-3.967h4.597M15.774 3.661c-2.172-1.79-5.031-2.502-7.844-1.954-3.786 0.737-6.826 3.933-7.394 7.772-0.463 3.133 0.65 6.262 2.977 8.369 1.049 0.95 1.682 2.318 1.782 3.853 0.001 0.028 0.007 0.055 0.013 0.081v4.813c0 0.265 0.215 0.48 0.48 0.48v0h0.479c0.195 1.395 1.22 2.463 2.455 2.463h2.179c1.235 0 2.26-1.068 2.455-2.463h0.479c0.265 0 0.48-0.215 0.48-0.48v0-4.893c0-1.428 0.648-2.807 1.826-3.883 1.876-1.72 3.048-4.18 3.052-6.914v-0.001c0-0.004 0-0.008 0-0.012 0-2.906-1.325-5.502-3.404-7.218l-0.016-0.013zM8.114 12.771h-0.737c-0.407-0.001-0.737-0.331-0.737-0.738v-0c0.001-0.407 0.33-0.737 0.737-0.737h0c0.407 0.001 0.737 0.33 0.737 0.737v0.738zM11.509 12.033c0.001-0.407 0.331-0.737 0.738-0.737h0c0.407 0.001 0.737 0.33 0.737 0.737v0c-0.001 0.407-0.33 0.737-0.737 0.737h-0.737l-0.001-0.737zM9.074 21.187v-7.456h1.477l0.011 7.456h-1.488zM10.901 28.577h-2.179c-0.716 0-1.317-0.641-1.484-1.503h5.147c-0.166 0.862-0.767 1.503-1.483 1.503zM15.493 17.111c-1.239 1.131-1.972 2.564-2.11 4.076h-1.861l-0.011-7.456h0.736c0.937-0.001 1.697-0.761 1.697-1.698v-0c-0.001-0.937-0.76-1.696-1.697-1.697h-0c-0.938 0.001-1.698 0.761-1.698 1.698v0l0.001 0.737h-1.476v-0.738c-0.001-0.937-0.76-1.696-1.697-1.697h-0c-0.937 0.001-1.696 0.761-1.697 1.697v0c0.001 0.937 0.76 1.696 1.697 1.697h0.738v7.456h-1.911c-0.203-1.601-0.916-3.029-2.046-4.051-2.089-1.892-3.088-4.703-2.672-7.518 0.509-3.443 3.234-6.309 6.628-6.97 2.53-0.492 5.1 0.147 7.050 1.754 1.88 1.552 3.069 3.882 3.069 6.491 0 0.004 0 0.008 0 0.012v-0.001c-0.003 2.455-1.056 4.663-2.733 6.201l-0.006 0.006z"></path>
        </symbol>
        <symbol id="icon-plus-list-2" viewBox="0 0 32 32">
            <path d="M24.602 15.974c-0.074-0.174-0.244-0.294-0.442-0.294h-5.527l3.2-12.998c0.007-0.031 0.011-0.067 0.011-0.103 0-0.265-0.215-0.48-0.48-0.48-0.133 0-0.254 0.054-0.341 0.142l-0 0-13.523 13.581c-0.087 0.087-0.14 0.207-0.14 0.339 0 0.265 0.215 0.48 0.48 0.48h5.527l-3.2 12.998c-0.007 0.031-0.011 0.067-0.011 0.103 0 0.265 0.215 0.48 0.48 0.48 0.133 0 0.254-0.054 0.341-0.142l0-0 13.523-13.581c0.087-0.087 0.14-0.206 0.14-0.339 0-0.067-0.014-0.131-0.039-0.189l0.001 0.003zM11.52 28.189l2.931-11.914c0.009-0.034 0.014-0.074 0.014-0.114 0-0.265-0.215-0.48-0.48-0.48-0.001 0-0.003 0-0.004 0h-4.985l11.485-11.55-2.925 11.914c-0.009 0.034-0.014 0.074-0.014 0.115 0 0.265 0.214 0.479 0.478 0.48h4.986l-11.485 11.549zM22.739 22.061c-0.085-0.080-0.201-0.129-0.327-0.129-0.265 0-0.48 0.215-0.48 0.48 0 0.127 0.049 0.242 0.129 0.328l-0-0 3.84 3.84c0.085 0.076 0.197 0.122 0.32 0.122 0.265 0 0.48-0.215 0.48-0.48 0-0.123-0.046-0.235-0.122-0.32l0 0-3.84-3.84zM8.96 9.76c0 0 0.001 0 0.001 0 0.265 0 0.479-0.215 0.479-0.479 0-0.133-0.054-0.253-0.141-0.34v0l-3.84-3.84c-0.085-0.080-0.201-0.129-0.327-0.129-0.265 0-0.48 0.215-0.48 0.48 0 0.127 0.049 0.242 0.129 0.327l-0-0 3.84 3.84c0.090 0.090 0.212 0.141 0.339 0.141z"></path>
            <path d="M21.901 9.459c0.087 0.087 0.207 0.14 0.339 0.14s0.252-0.054 0.339-0.14v0l3.84-3.84c0.080-0.085 0.129-0.201 0.129-0.327 0-0.265-0.215-0.48-0.48-0.48-0.127 0-0.242 0.049-0.328 0.129l0-0-3.84 3.84c-0.087 0.087-0.14 0.207-0.14 0.339s0.054 0.252 0.14 0.339v0zM8.781 22.221l-3.84 3.84c-0.099 0.088-0.161 0.216-0.161 0.359 0 0.265 0.215 0.48 0.481 0.48 0.142 0 0.27-0.062 0.358-0.16l0-0 3.84-3.84c0.080-0.085 0.129-0.201 0.129-0.327 0-0.265-0.215-0.48-0.48-0.48-0.127 0-0.242 0.049-0.328 0.129l0-0zM5.92 19.2c-0.442 0-0.8 0.358-0.8 0.8s0.358 0.8 0.8 0.8v0c0.442 0 0.8-0.358 0.8-0.8s-0.358-0.8-0.8-0.8v0zM3.040 16.96c-0.442 0-0.8 0.358-0.8 0.8s0.358 0.8 0.8 0.8v0c0.442 0 0.8-0.358 0.8-0.8s-0.358-0.8-0.8-0.8v0zM28.64 12.8c-0.442 0-0.8 0.358-0.8 0.8s0.358 0.8 0.8 0.8v0c0.442 0 0.8-0.358 0.8-0.8s-0.358-0.8-0.8-0.8v0zM10.080 4.8c-0.442 0-0.8 0.358-0.8 0.8s0.358 0.8 0.8 0.8v0c0.442 0 0.8-0.358 0.8-0.8s-0.358-0.8-0.8-0.8v0z"></path>
        </symbol>
        <symbol id="icon-plus-list-3" viewBox="0 0 32 32">
            <path d="M21.12 7.222v-1.782h2.4c0.265 0 0.48-0.215 0.48-0.48s-0.215-0.48-0.48-0.48h-5.76c-0.265 0-0.48 0.215-0.48 0.48s0.215 0.48 0.48 0.48h2.4v1.779c-5.412 0.263-9.699 4.715-9.699 10.168 0 5.622 4.557 10.179 10.179 10.179s10.179-4.558 10.179-10.179c0-5.453-4.288-9.905-9.676-10.167l-0.023-0.001v0.003zM20.592 26.63c-5.099 0-9.232-4.133-9.232-9.232s4.133-9.232 9.232-9.232c5.099 0 9.232 4.133 9.232 9.232v0c-0.006 5.096-4.135 9.226-9.231 9.232h-0.001z"></path>
            <path d="M18.285 23.66c-2.566-0.973-4.358-3.407-4.365-6.261v-0.001c0-0.265-0.215-0.48-0.48-0.48s-0.48 0.215-0.48 0.48v0c0.008 3.265 2.058 6.049 4.939 7.144l0.053 0.018c0.044 0.014 0.094 0.023 0.146 0.023 0.265 0 0.48-0.215 0.48-0.48 0-0.198-0.12-0.368-0.29-0.441l-0.003-0.001zM24.695 22.659c-0.887 0.698-1.976 1.179-3.165 1.346l-0.035 0.004c-0.252 0.016-0.451 0.225-0.451 0.48 0 0.266 0.215 0.481 0.481 0.481 0.011 0 0.021-0 0.032-0.001l-0.001 0h0.064c1.402-0.198 2.647-0.752 3.677-1.567l-0.016 0.012c0.118-0.088 0.193-0.228 0.193-0.385 0-0.265-0.215-0.48-0.48-0.48-0.116 0-0.223 0.041-0.306 0.11l0.001-0.001h0.007zM22.185 17.398c-0.001-0.313-0.093-0.603-0.25-0.848l0.004 0.006 3.306-3.389c0.078-0.085 0.125-0.199 0.125-0.323 0-0.265-0.215-0.48-0.48-0.48-0.13 0-0.247 0.051-0.334 0.135l0-0-3.344 3.43c-0.188-0.084-0.409-0.134-0.64-0.134-0.884 0-1.6 0.716-1.6 1.6s0.716 1.6 1.6 1.6c0.883 0 1.599-0.715 1.6-1.598v-0h0.013zM20.585 18.038c-0.353 0-0.64-0.287-0.64-0.64s0.287-0.64 0.64-0.64c0.353 0 0.64 0.287 0.64 0.64v0c-0.002 0.35-0.284 0.634-0.634 0.637h-0l-0.006 0.003zM8 17.76c0-0.265-0.215-0.48-0.48-0.48h-5.76c-0.265 0-0.48 0.215-0.48 0.48s0.215 0.48 0.48 0.48h5.76c0.265 0 0.48-0.215 0.48-0.48v0zM8.479 21.76h-5.76c-0.265 0-0.48 0.215-0.48 0.48s0.215 0.48 0.48 0.48h5.76c0.265 0 0.48-0.215 0.48-0.48s-0.215-0.48-0.48-0.48v0zM8.479 12.48h-5.76c-0.265 0-0.48 0.215-0.48 0.48s0.215 0.48 0.48 0.48h5.76c0.265 0 0.48-0.215 0.48-0.48s-0.215-0.48-0.48-0.48v0z"></path>
        </symbol>
        <symbol id="icon-plus-list-4" viewBox="0 0 32 32">
            <path d="M6.88 22.8h0.848l-1.094 3.679c-0.012 0.040-0.019 0.086-0.019 0.134 0 0.265 0.215 0.48 0.481 0.48 0.149 0 0.282-0.068 0.37-0.174l0.001-0.001c0.040-0.049 0.069-0.105 0.088-0.166l1.175-3.953h3.326l1.176 3.953c0.066 0.192 0.245 0.327 0.455 0.327 0.265 0 0.48-0.215 0.48-0.48 0-0.042-0.005-0.084-0.016-0.123l0.001 0.003-1.094-3.679h0.863c0.265 0 0.48-0.215 0.48-0.48s-0.215-0.48-0.48-0.48h-1.149l-0.921-3.097c-0.010-0.032-0.021-0.059-0.035-0.084l0.001 0.003c0.989-0.511 1.654-1.526 1.656-2.696v-0c0-1.409-0.968-2.593-2.273-2.929v-2.237c0-0.265-0.215-0.48-0.48-0.48s-0.48 0.215-0.48 0.48v0 2.147c-1.574 0.106-2.823 1.417-2.823 3.018 0.001 1.139 0.63 2.131 1.56 2.648l0.015 0.008c-0.024 0.035-0.044 0.076-0.058 0.119l-0.001 0.003-0.921 3.096h-1.133c-0.265 0-0.48 0.215-0.48 0.48s0.215 0.48 0.48 0.48v0zM8.377 15.966c0-1.14 0.928-2.068 2.068-2.068 1.142 0.001 2.067 0.926 2.068 2.068v0c-0.001 1.142-0.926 2.067-2.068 2.069h-0c-1.142-0.001-2.068-0.926-2.069-2.068v-0zM9.854 19.018c0.007-0.023 0.012-0.050 0.015-0.078l0-0.002c0.19 0.037 0.383 0.056 0.576 0.057 0.161 0 0.319-0.016 0.473-0.040 0.003 0.021 0.006 0.043 0.012 0.064l0.839 2.822h-2.755l0.839-2.822zM17.12 26.96h2.56c0.265 0 0.48-0.215 0.48-0.48v0-12.802c-0-0.066-0.013-0.128-0.037-0.185l0.001 0.003-1.28-3.126c-0.074-0.176-0.245-0.298-0.444-0.298s-0.37 0.122-0.443 0.295l-0.001 0.003-1.28 3.126c-0.023 0.054-0.036 0.116-0.036 0.182 0 0.004 0 0.008 0 0.011v-0.001 12.791c0 0.265 0.215 0.48 0.48 0.48v0zM17.6 26v-0.96h1.6v0.96h-1.6zM18.4 11.819l0.8 1.954v10.307h-1.6v-10.307l0.8-1.954z"></path>
            <path d="M23.2 5.2h-19.2c-0.265 0-0.48 0.215-0.48 0.479v24.64c0 0.265 0.215 0.48 0.48 0.48v0h19.2c0.265 0 0.48-0.215 0.48-0.479v-24.64c0-0 0-0 0-0 0-0.265-0.215-0.48-0.48-0.48v0zM22.72 29.84h-18.24v-23.68h18.24v23.68z"></path>
            <path d="M27.040 1.36h-19.2c-0.265 0-0.48 0.215-0.48 0.48v2.56c0 0.265 0.215 0.48 0.48 0.48s0.48-0.215 0.48-0.48v-2.080h18.24v23.68h-1.76c-0.265 0-0.48 0.215-0.48 0.48s0.215 0.48 0.48 0.48h2.24c0.265 0 0.48-0.215 0.48-0.48v0-24.64c0-0.265-0.215-0.48-0.48-0.48v0z"></path>
        </symbol>
    </defs>
</svg>